<svg width="48" height="48" viewBox="0 0 48 48" version="1.1" xmlns="http://www.w3.org/2000/svg" xmlns:xlink="http://www.w3.org/1999/xlink">
<g id="Canvas" fill="none">
<g id="clock">
<path d="M 24 0C 10.7368 0 0 10.7368 0 24C 0 37.2632 10.7368 48 24 48C 37.2632 48 48 37.2632 48 24C 48 10.7368 37.2632 0 24 0ZM 25.2632 45.4105L 25.2632 44.1474C 25.2632 43.4526 24.6947 42.8842 24 42.8842C 23.3053 42.8842 22.7368 43.4526 22.7368 44.1474L 22.7368 45.4105C 11.8737 44.7789 3.22105 36.0632 2.58947 25.2632L 3.85263 25.2632C 4.54737 25.2632 5.11579 24.6947 5.11579 24C 5.11579 23.3053 4.54737 22.7368 3.85263 22.7368L 2.58947 22.7368C 3.22105 11.8737 11.9368 3.22105 22.7368 2.58947L 22.7368 3.85263C 22.7368 4.54737 23.3053 5.11579 24 5.11579C 24.6947 5.11579 25.2632 4.54737 25.2632 3.85263L 25.2632 2.58947C 36.1263 3.22105 44.7789 11.9368 45.4105 22.7368L 44.1474 22.7368C 43.4526 22.7368 42.8842 23.3053 42.8842 24C 42.8842 24.6947 43.4526 25.2632 44.1474 25.2632L 45.4105 25.2632C 44.7789 36.1263 36.1263 44.7789 25.2632 45.4105ZM 31.5789 31.5789C 31.0737 32.0842 30.3158 32.0842 29.8105 31.5789L 23.1158 24.8842C 23.1789 24.9474 22.7368 24.6316 22.7368 24L 22.7368 8.84211C 22.7368 8.14737 23.3053 7.57895 24 7.57895C 24.6947 7.57895 25.2632 8.14737 25.2632 8.84211L 25.2632 23.4947L 31.5789 29.8105C 32.0842 30.3158 32.0842 31.0737 31.5789 31.5789Z" fill="#333333"/>
</g>
</g>
</svg>

