<svg width="48" height="33" viewBox="0 0 48 33" version="1.1" xmlns="http://www.w3.org/2000/svg" xmlns:xlink="http://www.w3.org/1999/xlink">
<g id="Canvas" fill="none">
<g id="credit-card">
<path d="M 46.7368 0L 1.26316 0C 0.568421 0 0 0.568421 0 1.26316L 0 31.5789C 0 32.2737 0.568421 32.8421 1.26316 32.8421L 46.7368 32.8421C 47.4316 32.8421 48 32.2737 48 31.5789L 48 1.26316C 48 0.568421 47.4316 0 46.7368 0ZM 45.4737 30.3158L 2.52632 30.3158L 2.52632 15.1579L 45.4737 15.1579L 45.4737 30.3158ZM 45.4737 12.6316L 2.52632 12.6316L 2.52632 8.84211L 45.4737 8.84211L 45.4737 12.6316ZM 45.4737 6.31579L 2.52632 6.31579L 2.52632 2.52632L 45.4737 2.52632L 45.4737 6.31579ZM 21.4737 25.2632C 21.4737 25.9579 20.9053 26.5263 20.2105 26.5263L 7.57895 26.5263C 6.88421 26.5263 6.31579 25.9579 6.31579 25.2632C 6.31579 24.5684 6.88421 24 7.57895 24L 20.2105 24C 20.9053 24 21.4737 24.5684 21.4737 25.2632Z" fill="#333333"/>
</g>
</g>
</svg>

