<svg width="48" height="43" viewBox="0 0 48 43" version="1.1" xmlns="http://www.w3.org/2000/svg" xmlns:xlink="http://www.w3.org/1999/xlink">
<g id="Canvas" fill="none">
<g id="heart">
<path d="M 23.19 41.7475L 3.95338 22.6863C 3.1348 21.9262 2.49163 21.0491 1.90693 20.1136C -1.25044 14.9098 -0.43186 8.24425 3.95338 3.91748C 6.46758 1.40328 9.85883 0 13.4255 0C 19.0386 0 22.5468 3.27431 24.0085 5.14535C 25.4703 3.27431 28.9785 0 34.5916 0C 38.1582 0 41.5495 1.40328 44.0637 3.91748C 48.3905 8.24425 49.2675 14.9098 46.1101 20.1136C 45.5254 21.0491 44.8823 21.9262 44.0637 22.6863L 24.8271 41.7475C 24.3594 42.2152 23.6577 42.2152 23.19 41.7475ZM 13.4255 2.33879C 10.4435 2.33879 7.69545 3.50819 5.59053 5.55464C 2.02387 9.1213 1.32224 14.6175 3.89491 18.8858C 4.36267 19.6459 4.94737 20.406 5.59053 21.0491L 24.0085 39.2917L 42.4265 21.0491C 43.0697 20.406 43.6544 19.7043 44.1222 18.8858C 46.6948 14.559 46.0517 9.06283 42.4265 5.55464C 40.3216 3.50819 37.5151 2.33879 34.5916 2.33879C 30.3818 2.33879 26.8736 4.61912 25.0025 7.77649C 24.5348 8.5366 23.4238 8.5366 22.9561 7.77649C 21.1435 4.61912 17.6353 2.33879 13.4255 2.33879Z" fill="#333333"/>
</g>
</g>
</svg>

