<svg width="32" height="48" viewBox="0 0 32 48" version="1.1" xmlns="http://www.w3.org/2000/svg" xmlns:xlink="http://www.w3.org/1999/xlink">
<g id="Canvas" fill="none">
<g id="location">
<path d="M 15.9905 0C 7.19572 0 0 7.0815 0 15.8192C 0 34.4366 14.6199 47.1719 15.2481 47.743C 15.6478 48.0857 16.3331 48.0857 16.7329 47.743C 17.3611 47.1719 31.981 34.3795 31.981 15.8192C 31.981 7.0815 24.7852 0 15.9905 0ZM 15.9905 45.2873C 13.0208 42.4319 2.28435 31.0101 2.28435 15.8192C 2.28435 8.33789 8.45211 2.28435 15.9905 2.28435C 23.5289 2.28435 29.6966 8.33789 29.6966 15.8192C 29.6966 31.0101 18.9601 42.4319 15.9905 45.2873ZM 15.9905 6.85306C 10.9649 6.85306 6.85306 10.9649 6.85306 15.9905C 6.85306 21.0161 10.9649 25.1279 15.9905 25.1279C 21.0161 25.1279 25.1279 21.0161 25.1279 15.9905C 25.1279 10.9649 21.0161 6.85306 15.9905 6.85306ZM 15.9905 22.8435C 12.2213 22.8435 9.13742 19.7597 9.13742 15.9905C 9.13742 12.2213 12.2213 9.13742 15.9905 9.13742C 19.7597 9.13742 22.8435 12.2213 22.8435 15.9905C 22.8435 19.7597 19.7597 22.8435 15.9905 22.8435Z" fill="#333333"/>
</g>
</g>
</svg>

