<svg width="48" height="35" viewBox="0 0 48 35" version="1.1" xmlns="http://www.w3.org/2000/svg" xmlns:xlink="http://www.w3.org/1999/xlink">
<g id="Canvas" fill="none">
<g id="users">
<path d="M 39.7395 21.8791C 41.3581 20.5395 42.4186 18.4744 42.4186 16.186C 42.4186 12.3349 39.293 8.93023 35.7209 8.93023C 32.1488 8.93023 29.0233 12.3349 29.0233 16.186C 29.0233 18.4744 30.0837 20.5395 31.7023 21.8791C 30.9767 22.1581 30.307 22.4372 29.6372 22.8279C 27.5163 20.3163 24.7256 18.3628 21.4884 17.414C 23.9442 15.6837 25.6744 12.7256 25.6744 9.48837C 25.6744 4.4093 21.4884 0 16.7442 0C 12 0 7.81395 4.4093 7.81395 9.48837C 7.81395 12.7256 9.54419 15.6837 12 17.414C 5.07907 19.4791 0 25.8977 0 33.4884C 0 34.1023 0.502326 34.6047 1.11628 34.6047L 46.8837 34.6047C 47.4977 34.6047 48 34.1023 48 33.4884C 48 28.1302 44.5395 23.5535 39.7395 21.8791ZM 31.2558 16.186C 31.2558 13.8419 33.2093 11.1628 35.7209 11.1628C 38.2326 11.1628 40.186 13.8419 40.186 16.186C 40.186 18.5302 38.2326 21.2093 35.7209 21.2093C 33.2093 21.2093 31.2558 18.5302 31.2558 16.186ZM 10.0465 9.48837C 10.0465 6.08372 12.893 2.23256 16.7442 2.23256C 20.5953 2.23256 23.4419 6.08372 23.4419 9.48837C 23.4419 12.893 20.5953 16.7442 16.7442 16.7442C 12.893 16.7442 10.0465 12.893 10.0465 9.48837ZM 2.28837 32.3721C 2.84651 24.893 9.15349 18.9767 16.7442 18.9767C 24.3907 18.9767 30.6419 24.893 31.2 32.3721L 2.28837 32.3721ZM 33.4326 32.3721C 33.2651 29.5814 32.3721 26.9023 30.9209 24.6698C 32.3721 23.8884 33.9907 23.4419 35.7209 23.4419C 40.9116 23.4419 45.1535 27.3488 45.7116 32.3721L 33.4326 32.3721Z" fill="#333333"/>
</g>
</g>
</svg>

