<svg width="92" height="24" viewBox="0 0 92 24" version="1.1" xmlns="http://www.w3.org/2000/svg" xmlns:xlink="http://www.w3.org/1999/xlink">
<g id="Canvas" fill="none">
<g id="Coll&#195;&#161;b">
<path d="M 16.3001 3.01164C 16.9418 3.34282 17.2626 3.87063 17.2626 4.59508C 17.2626 5.02975 17.1074 5.45408 16.7969 5.86805C 16.4657 6.30272 16.0414 6.52005 15.5239 6.52005C 15.1721 6.52005 14.8202 6.42691 14.4683 6.24062C 13.4541 5.76455 12.357 5.52652 11.1772 5.52652C 9.72833 5.52652 8.46572 5.837 7.38939 6.45796C 6.31307 7.05821 5.48512 7.91721 4.90556 9.03493C 4.326 10.132 4.03622 11.3946 4.03622 12.8228C 4.03622 15.2652 4.68823 17.1177 5.99224 18.3803C 7.31695 19.643 9.04528 20.2743 11.1772 20.2743C 12.4398 20.2743 13.5369 20.0362 14.4683 19.5602C 14.8409 19.3946 15.1721 19.3118 15.4618 19.3118C 16 19.3118 16.4554 19.5395 16.8279 19.9948C 17.1384 20.3881 17.2937 20.8124 17.2937 21.2678C 17.2937 21.599 17.2109 21.8991 17.0453 22.1682C 16.8797 22.4373 16.6417 22.6442 16.3312 22.7891C 14.7167 23.5964 12.9987 24 11.1772 24C 9.14877 24 7.2859 23.5757 5.58862 22.727C 3.89133 21.8577 2.53558 20.5847 1.52135 18.9081C 0.507115 17.2316 0 15.2031 0 12.8228C 0 10.7115 0.476067 8.81759 1.4282 7.14101C 2.40103 5.46442 3.73609 4.16041 5.43338 3.22898C 7.13066 2.27684 9.04528 1.80078 11.1772 1.80078C 13.0194 1.80078 14.727 2.2044 16.3001 3.01164Z" fill="#212E33"/>
<path d="M 36.2004 15.3997C 36.2004 17.0556 35.8278 18.5459 35.0826 19.8706C 34.3375 21.1746 33.3129 22.1889 32.0089 22.9133C 30.7256 23.6378 29.3077 24 27.7553 24C 26.1822 24 24.754 23.6378 23.4707 22.9133C 22.1874 22.1889 21.1732 21.1746 20.428 19.8706C 19.6829 18.5459 19.3103 17.0556 19.3103 15.3997C 19.3103 13.7439 19.6829 12.2639 20.428 10.9599C 21.1732 9.63519 22.1874 8.61061 23.4707 7.88616C 24.754 7.14101 26.1822 6.76843 27.7553 6.76843C 29.3077 6.76843 30.7256 7.14101 32.0089 7.88616C 33.3129 8.61061 34.3375 9.63519 35.0826 10.9599C 35.8278 12.2639 36.2004 13.7439 36.2004 15.3997ZM 32.4746 15.3997C 32.4746 14.3855 32.2573 13.4851 31.8226 12.6986C 31.4086 11.8913 30.8394 11.2704 30.115 10.8357C 29.4112 10.401 28.6247 10.1837 27.7553 10.1837C 26.886 10.1837 26.0891 10.401 25.3646 10.8357C 24.6609 11.2704 24.0917 11.8913 23.657 12.6986C 23.243 13.4851 23.0361 14.3855 23.0361 15.3997C 23.0361 16.414 23.243 17.3144 23.657 18.1009C 24.0917 18.8875 24.6609 19.4981 25.3646 19.9327C 26.0891 20.3674 26.886 20.5847 27.7553 20.5847C 28.6247 20.5847 29.4112 20.3674 30.115 19.9327C 30.8394 19.4981 31.4086 18.8875 31.8226 18.1009C 32.2573 17.3144 32.4746 16.414 32.4746 15.3997Z" fill="#212E33"/>
<path d="M 43.3494 21.7956C 43.3494 22.3338 43.1631 22.7891 42.7905 23.1617C 42.4386 23.5136 41.9936 23.6895 41.4554 23.6895C 40.938 23.6895 40.5033 23.5136 40.1514 23.1617C 39.7996 22.7891 39.6236 22.3338 39.6236 21.7956L 39.6236 2.60802C 39.6236 2.06986 39.7996 1.62484 40.1514 1.27296C 40.524 0.900388 40.9794 0.714101 41.5175 0.714101C 42.035 0.714101 42.4697 0.900388 42.8216 1.27296C 43.1734 1.62484 43.3494 2.06986 43.3494 2.60802L 43.3494 21.7956Z" fill="#212E33"/>
<path d="M 51.7177 21.7956C 51.7177 22.3338 51.5314 22.7891 51.1589 23.1617C 50.807 23.5136 50.362 23.6895 49.8238 23.6895C 49.3064 23.6895 48.8717 23.5136 48.5198 23.1617C 48.1679 22.7891 47.992 22.3338 47.992 21.7956L 47.992 2.60802C 47.992 2.06986 48.1679 1.62484 48.5198 1.27296C 48.8924 0.900388 49.3478 0.714101 49.8859 0.714101C 50.4034 0.714101 50.8381 0.900388 51.1899 1.27296C 51.5418 1.62484 51.7177 2.06986 51.7177 2.60802L 51.7177 21.7956Z" fill="#212E33"/>
<path d="M 69.4936 6.76843C 70.0318 6.76843 70.4768 6.94437 70.8287 7.29625C 71.1805 7.64813 71.3565 8.10349 71.3565 8.66235L 71.3565 21.7956C 71.3565 22.3338 71.1805 22.7891 70.8287 23.1617C 70.4768 23.5136 70.0318 23.6895 69.4936 23.6895C 68.9555 23.6895 68.5104 23.5136 68.1586 23.1617C 67.8274 22.8098 67.6514 22.3648 67.6307 21.8266C 67.1133 22.4269 66.4095 22.9444 65.5195 23.379C 64.6501 23.793 63.7291 24 62.7562 24C 61.328 24 60.0344 23.6378 58.8752 22.9133C 57.7161 22.1682 56.795 21.1436 56.112 19.8396C 55.4496 18.5356 55.1185 17.0556 55.1185 15.3997C 55.1185 13.7439 55.4496 12.2639 56.112 10.9599C 56.7743 9.63519 57.6747 8.61061 58.8131 7.88616C 59.9723 7.14101 61.2452 6.76843 62.632 6.76843C 63.6256 6.76843 64.557 6.95472 65.4263 7.3273C 66.2957 7.67917 67.0305 8.13454 67.6307 8.6934L 67.6307 8.66235C 67.6307 8.12419 67.8067 7.67917 68.1586 7.3273C 68.5104 6.95472 68.9555 6.76843 69.4936 6.76843ZM 63.2219 20.5847C 64.5674 20.5847 65.6644 20.0983 66.513 19.1255C 67.3617 18.132 67.786 16.89 67.786 15.3997C 67.786 13.9094 67.3617 12.6675 66.513 11.674C 65.6644 10.6805 64.5674 10.1837 63.2219 10.1837C 61.8972 10.1837 60.8106 10.6805 59.9619 11.674C 59.1133 12.6675 58.689 13.9094 58.689 15.3997C 58.689 16.89 59.1029 18.132 59.9309 19.1255C 60.7795 20.0983 61.8765 20.5847 63.2219 20.5847ZM 63.5635 6.02329C 63.3565 6.02329 63.1288 5.93014 62.8804 5.74385C 62.6527 5.55757 62.5492 5.30919 62.5699 4.99871C 62.5699 4.81242 62.632 4.61578 62.7562 4.4088L 64.557 1.24192C 64.764 0.869341 65.0124 0.569212 65.3021 0.341528C 65.5919 0.113843 65.9128 0 66.2646 0C 66.8235 0 67.2375 0.14489 67.5065 0.43467C 67.7963 0.72445 67.9309 1.09702 67.9102 1.55239C 67.8688 2.02846 67.6721 2.47348 67.3203 2.88745L 64.9606 5.49547C 64.6294 5.84735 64.1637 6.02329 63.5635 6.02329Z" fill="#212E33"/>
<path d="M 83.9944 6.76843C 85.4226 6.76843 86.7163 7.14101 87.8754 7.88616C 89.0345 8.61061 89.9453 9.62484 90.6076 10.9288C 91.2907 12.2329 91.6322 13.7128 91.6322 15.3687C 91.6322 17.0246 91.301 18.5149 90.6387 19.8396C 89.9763 21.1436 89.0656 22.1682 87.9065 22.9133C 86.768 23.6378 85.5054 24 84.1186 24C 83.1251 24 82.1833 23.8034 81.2933 23.4101C 80.4239 22.9961 79.6995 22.4994 79.1199 21.9198L 79.1199 22.1061C 79.1199 22.6442 78.944 23.0996 78.5921 23.4722C 78.2402 23.8241 77.7952 24 77.257 24C 76.7189 24 76.2738 23.8241 75.922 23.4722C 75.5701 23.1203 75.3942 22.6649 75.3942 22.1061L 75.3942 2.60802C 75.3942 2.06986 75.5701 1.62484 75.922 1.27296C 76.2738 0.900388 76.7189 0.714101 77.257 0.714101C 77.7952 0.714101 78.2402 0.900388 78.5921 1.27296C 78.944 1.62484 79.1199 2.06986 79.1199 2.60802L 79.1199 9.09702C 79.6167 8.47607 80.3101 7.9379 81.2001 7.48254C 82.0901 7.00647 83.0216 6.76843 83.9944 6.76843ZM 83.5287 20.5847C 84.8534 20.5847 85.9401 20.088 86.7887 19.0944C 87.6374 18.1009 88.0617 16.859 88.0617 15.3687C 88.0617 13.8784 87.6374 12.6468 86.7887 11.674C 85.9608 10.6805 84.8741 10.1837 83.5287 10.1837C 82.1833 10.1837 81.0863 10.6805 80.2376 11.674C 79.389 12.6468 78.9647 13.8784 78.9647 15.3687C 78.9647 16.859 79.389 18.1009 80.2376 19.0944C 81.0863 20.088 82.1833 20.5847 83.5287 20.5847Z" fill="#212E33"/>
</g>
</g>
</svg>

